<?xml version="1.0" standalone="no"?>
<!DOCTYPE svg PUBLIC "-//W3C//DTD SVG 20010904//EN"
 "http://www.w3.org/TR/2001/REC-SVG-20010904/DTD/svg10.dtd">
<svg version="1.0" xmlns="http://www.w3.org/2000/svg"
 width="512.000000pt" height="512.000000pt" viewBox="0 0 512.000000 512.000000"
 preserveAspectRatio="xMidYMid meet">
<metadata>
Created by potrace 1.14, written by Peter Selinger 2001-2017
</metadata>
<g transform="translate(0.000000,512.000000) scale(0.100000,-0.100000)"
fill="#000000" stroke="none">
<path d="M2430 5109 c-19 -3 -50 -9 -68 -13 -45 -9 -152 -50 -203 -78 -47 -25
-43 -23 -113 -76 -146 -109 -257 -274 -305 -452 -28 -101 -29 -110 -30 -382
l-1 -238 -388 0 c-428 0 -420 1 -447 -64 -7 -17 -14 -71 -15 -121 -1 -49 -3
-115 -5 -145 -1 -30 -6 -140 -10 -245 -4 -104 -8 -221 -10 -260 -2 -38 -6
-151 -10 -250 -3 -99 -8 -214 -10 -255 -2 -41 -6 -156 -10 -255 -3 -99 -8
-220 -10 -270 -2 -49 -6 -162 -10 -250 -3 -88 -8 -203 -10 -255 -5 -116 -14
-330 -20 -505 -6 -174 -15 -376 -20 -510 -15 -346 -15 -407 2 -436 9 -16 30
-33 46 -39 20 -7 610 -10 1789 -10 1635 0 1762 1 1789 17 46 27 52 56 45 215
-4 79 -9 199 -11 268 -3 69 -7 177 -10 240 -3 63 -7 185 -10 270 -3 85 -7 198
-10 250 -2 52 -7 167 -10 255 -3 88 -7 203 -10 255 -3 52 -7 167 -10 255 -3
88 -7 205 -10 260 -3 55 -7 163 -10 240 -3 77 -7 190 -10 250 -3 61 -7 182
-10 270 -3 88 -7 203 -10 255 -3 52 -7 167 -10 255 -8 228 -12 259 -40 285
-13 12 -38 25 -57 28 -18 4 -196 7 -395 7 l-363 -1 0 238 c0 131 -1 241 -2
246 -1 4 -7 37 -14 73 -55 287 -276 544 -554 641 -119 42 -311 59 -420 37z
m275 -320 c189 -52 350 -221 389 -412 8 -38 14 -146 14 -282 l2 -220 -545 -3
-546 -3 1 235 c1 263 8 307 67 419 68 130 212 240 356 272 68 16 195 13 262
-6z"/>
</g>
</svg>
